<svg width="256" height="44" viewBox="0 0 256 44" fill="none" xmlns="http://www.w3.org/2000/svg">
<rect width="256" height="40" fill="#F2BF4E"/>
<path d="M30.7188 25.144C29.5775 25.144 28.5801 24.904 27.7268 24.424C26.8841 23.944 26.2335 23.2667 25.7748 22.392C25.3268 21.5173 25.1028 20.504 25.1028 19.352C25.1028 18.2 25.3268 17.1867 25.7748 16.312C26.2335 15.4373 26.8841 14.7653 27.7268 14.296C28.5801 13.816 29.5775 13.576 30.7188 13.576C31.4655 13.576 32.1801 13.6933 32.8628 13.928C33.5455 14.152 34.1055 14.4667 34.5428 14.872L33.7428 16.648C33.2521 16.2747 32.7615 16.0027 32.2708 15.832C31.7908 15.6613 31.2895 15.576 30.7668 15.576C29.7641 15.576 28.9908 15.896 28.4468 16.536C27.9135 17.176 27.6468 18.1147 27.6468 19.352C27.6468 20.5893 27.9135 21.5333 28.4468 22.184C28.9908 22.824 29.7641 23.144 30.7668 23.144C31.2895 23.144 31.7908 23.0587 32.2708 22.888C32.7615 22.7173 33.2521 22.4453 33.7428 22.072L34.5428 23.848C34.1055 24.2533 33.5455 24.5733 32.8628 24.808C32.1801 25.032 31.4655 25.144 30.7188 25.144ZM46.6986 25H43.9786L42.0266 21.4C41.8666 21.1227 41.6746 20.9253 41.4506 20.808C41.2266 20.68 40.9439 20.616 40.6026 20.616H39.3706V25H36.9066V13.72H42.0906C43.4132 13.72 44.4106 14.0133 45.0826 14.6C45.7652 15.176 46.1066 16.0133 46.1066 17.112C46.1066 17.9653 45.8666 18.68 45.3866 19.256C44.9172 19.832 44.2506 20.2107 43.3866 20.392C43.9732 20.5413 44.4692 20.9627 44.8746 21.656L46.6986 25ZM41.7226 18.728C42.4372 18.728 42.9546 18.6053 43.2746 18.36C43.5946 18.104 43.7546 17.7093 43.7546 17.176C43.7546 16.632 43.5946 16.2373 43.2746 15.992C42.9546 15.7467 42.4372 15.624 41.7226 15.624H39.3386V18.728H41.7226ZM48.7653 25V13.72H51.2613V25H48.7653ZM62.7477 25L61.6757 22.504H56.4277L55.3557 25H52.8437L58.0277 13.72H60.0277L65.2117 25H62.7477ZM57.2437 20.616H60.8597L59.0517 16.392L57.2437 20.616ZM76.5873 25H73.8673L71.9153 21.4C71.7553 21.1227 71.5633 20.9253 71.3393 20.808C71.1153 20.68 70.8326 20.616 70.4913 20.616H69.2593V25H66.7953V13.72H71.9793C73.302 13.72 74.2993 14.0133 74.9713 14.6C75.654 15.176 75.9953 16.0133 75.9953 17.112C75.9953 17.9653 75.7553 18.68 75.2753 19.256C74.806 19.832 74.1393 20.2107 73.2753 20.392C73.862 20.5413 74.358 20.9627 74.7633 21.656L76.5873 25ZM71.6113 18.728C72.326 18.728 72.8433 18.6053 73.1633 18.36C73.4833 18.104 73.6433 17.7093 73.6433 17.176C73.6433 16.632 73.4833 16.2373 73.1633 15.992C72.8433 15.7467 72.326 15.624 71.6113 15.624H69.2273V18.728H71.6113ZM89.0588 25.144C87.9175 25.144 86.9201 24.904 86.0668 24.424C85.2241 23.944 84.5735 23.2667 84.1148 22.392C83.6668 21.5173 83.4428 20.504 83.4428 19.352C83.4428 18.2 83.6668 17.1867 84.1148 16.312C84.5735 15.4373 85.2241 14.7653 86.0668 14.296C86.9201 13.816 87.9175 13.576 89.0588 13.576C89.8055 13.576 90.5201 13.6933 91.2028 13.928C91.8855 14.152 92.4455 14.4667 92.8828 14.872L92.0828 16.648C91.5921 16.2747 91.1015 16.0027 90.6108 15.832C90.1308 15.6613 89.6295 15.576 89.1068 15.576C88.1041 15.576 87.3308 15.896 86.7868 16.536C86.2535 17.176 85.9868 18.1147 85.9868 19.352C85.9868 20.5893 86.2535 21.5333 86.7868 22.184C87.3308 22.824 88.1041 23.144 89.1068 23.144C89.6295 23.144 90.1308 23.0587 90.6108 22.888C91.1015 22.7173 91.5921 22.4453 92.0828 22.072L92.8828 23.848C92.4455 24.2533 91.8855 24.5733 91.2028 24.808C90.5201 25.032 89.8055 25.144 89.0588 25.144ZM100.196 25.144C99.0762 25.144 98.1002 24.9093 97.2682 24.44C96.4469 23.96 95.8122 23.288 95.3642 22.424C94.9162 21.5493 94.6922 20.5253 94.6922 19.352C94.6922 18.1787 94.9162 17.16 95.3642 16.296C95.8122 15.4213 96.4469 14.7493 97.2682 14.28C98.1002 13.8107 99.0762 13.576 100.196 13.576C101.316 13.576 102.287 13.8107 103.108 14.28C103.94 14.7493 104.58 15.4213 105.028 16.296C105.476 17.16 105.7 18.1787 105.7 19.352C105.7 20.5253 105.476 21.5493 105.028 22.424C104.58 23.288 103.94 23.96 103.108 24.44C102.287 24.9093 101.316 25.144 100.196 25.144ZM100.196 23.208C101.135 23.208 101.871 22.8773 102.404 22.216C102.948 21.5547 103.22 20.6 103.22 19.352C103.22 18.104 102.954 17.1547 102.42 16.504C101.887 15.8427 101.146 15.512 100.196 15.512C99.2469 15.512 98.5055 15.8427 97.9722 16.504C97.4495 17.1547 97.1882 18.104 97.1882 19.352C97.1882 20.6 97.4549 21.5547 97.9882 22.216C98.5215 22.8773 99.2575 23.208 100.196 23.208ZM115.702 13.72H118.038V25H116.182L110.566 17.816V25H108.246V13.72H110.086L115.702 20.872V13.72ZM123.525 25V15.752H119.989V13.72H129.557V15.752H126.021V25H123.525ZM138.681 25L137.609 22.504H132.361L131.289 25H128.777L133.961 13.72H135.961L141.145 25H138.681ZM133.177 20.616H136.793L134.985 16.392L133.177 20.616ZM157.533 18.776V24.296C156.989 24.5627 156.349 24.7707 155.613 24.92C154.877 25.0693 154.12 25.144 153.341 25.144C152.147 25.144 151.112 24.9147 150.237 24.456C149.363 23.9867 148.691 23.32 148.221 22.456C147.752 21.5813 147.517 20.5467 147.517 19.352C147.517 18.1787 147.747 17.16 148.205 16.296C148.675 15.4213 149.341 14.7493 150.205 14.28C151.069 13.8107 152.077 13.576 153.229 13.576C154.04 13.576 154.792 13.688 155.485 13.912C156.189 14.136 156.771 14.4453 157.229 14.84L156.445 16.616C155.923 16.2427 155.411 15.976 154.909 15.816C154.419 15.6453 153.885 15.56 153.309 15.56C151.133 15.56 150.045 16.824 150.045 19.352C150.045 20.6533 150.328 21.624 150.893 22.264C151.459 22.904 152.312 23.224 153.453 23.224C154.072 23.224 154.685 23.144 155.293 22.984V20.504H153.085V18.776H157.533ZM170.082 25H167.362L165.41 21.4C165.25 21.1227 165.058 20.9253 164.834 20.808C164.61 20.68 164.327 20.616 163.986 20.616H162.754V25H160.29V13.72H165.474C166.796 13.72 167.794 14.0133 168.466 14.6C169.148 15.176 169.49 16.0133 169.49 17.112C169.49 17.9653 169.25 18.68 168.77 19.256C168.3 19.832 167.634 20.2107 166.77 20.392C167.356 20.5413 167.852 20.9627 168.258 21.656L170.082 25ZM165.106 18.728C165.82 18.728 166.338 18.6053 166.658 18.36C166.978 18.104 167.138 17.7093 167.138 17.176C167.138 16.632 166.978 16.2373 166.658 15.992C166.338 15.7467 165.82 15.624 165.106 15.624H162.722V18.728H165.106ZM180.6 25L179.528 22.504H174.28L173.208 25H170.696L175.88 13.72H177.88L183.064 25H180.6ZM175.096 20.616H178.712L176.904 16.392L175.096 20.616ZM185.818 25V15.752H182.282V13.72H191.85V15.752H188.314V25H185.818ZM198.587 25.144C197.009 25.144 195.803 24.7387 194.971 23.928C194.15 23.1067 193.739 21.912 193.739 20.344V13.72H196.187V20.456C196.187 21.352 196.39 22.0347 196.795 22.504C197.211 22.9733 197.809 23.208 198.587 23.208C199.366 23.208 199.963 22.9733 200.379 22.504C200.795 22.024 201.003 21.3413 201.003 20.456V13.72H203.451V20.344C203.451 21.9013 203.035 23.0907 202.203 23.912C201.371 24.7333 200.166 25.144 198.587 25.144ZM206.272 25V13.72H208.768V25H206.272ZM214.254 25V15.752H210.718V13.72H220.286V15.752H216.75V25H214.254ZM229.41 25L228.338 22.504H223.09L222.018 25H219.506L224.69 13.72H226.69L231.874 25H229.41ZM223.906 20.616H227.522L225.714 16.392L223.906 20.616Z" fill="#212429"/>
<path d="M0 40H256L236.213 44H19.7874L0 40Z" fill="#212429"/>
</svg>
